<?xml version="1.0" encoding="utf-8"?>
<svg viewBox="0 0 500 500" xmlns="http://www.w3.org/2000/svg">
  <path d="M 254.337 210.479 C 253.82 210.443 253.314 210.427 252.819 210.427 C 242.069 210.427 235.947 218.623 233.721 225.218 L 239.63 231.125 C 246.416 228.697 254.402 222.802 254.402 212.167 C 254.402 211.616 254.381 211.055 254.337 210.479 Z M 240.24 228.202 L 236.637 224.599 C 238.164 221.024 242.502 213.416 251.886 212.948 C 251.571 220.166 246.834 225.362 240.24 228.202 Z M 247.079 230.125 C 246.395 230.591 245.717 231.013 245.045 231.388 C 244.811 232.501 244.217 233.69 243.356 234.703 C 243.354 233.983 243.153 233.257 242.802 232.529 C 242.183 232.81 241.595 233.051 241.034 233.264 C 241.86 235.4 241.019 236.978 239.889 238.457 C 241.509 238.336 243.21 237.542 244.548 236.201 C 245.996 234.758 247.008 232.673 247.079 230.125 Z M 232.305 222.037 C 231.582 221.689 230.858 221.491 230.141 221.486 C 231.144 220.636 232.32 220.045 233.423 219.805 C 233.816 219.113 234.257 218.432 234.72 217.763 C 232.172 217.832 230.085 218.848 228.639 220.292 C 227.3 221.632 226.508 223.333 226.385 224.951 C 227.864 223.822 229.443 222.982 231.579 223.808 C 231.797 223.222 232.037 222.631 232.305 222.037 Z M 241.977 222.866 C 241.488 222.379 241.488 221.587 241.977 221.099 C 242.465 220.61 243.257 220.61 243.744 221.099 C 244.233 221.588 244.233 222.38 243.744 222.868 C 243.255 223.355 242.465 223.355 241.977 222.866 Z M 248.163 216.679 C 247.188 215.704 245.604 215.704 244.629 216.679 C 243.653 217.655 243.653 219.239 244.629 220.214 C 245.604 221.191 247.188 221.191 248.165 220.214 C 249.14 219.239 249.14 217.655 248.163 216.679 Z M 245.777 219.067 C 245.435 218.725 245.435 218.17 245.777 217.829 C 246.117 217.487 246.674 217.487 247.016 217.829 C 247.356 218.17 247.355 218.725 247.016 219.067 C 246.674 219.407 246.119 219.407 245.777 219.067 Z M 226.863 234.899 L 225.731 233.767 L 232.242 227.282 L 233.375 228.415 L 226.863 234.899 Z M 233.085 237.22 L 231.953 236.087 L 236.498 231.506 L 237.632 232.639 L 233.085 237.22 Z M 225.534 240.427 L 224.402 239.294 L 232.461 231.248 L 233.595 232.381 L 225.534 240.427 Z M 257.159 218.99 C 256.877 219.917 256.149 220.643 255.222 220.927 C 256.149 221.209 256.877 221.935 257.159 222.863 C 257.442 221.935 258.168 221.209 259.095 220.927 C 258.168 220.645 257.442 219.919 257.159 218.99 Z M 235.176 209.234 C 234.806 210.449 233.855 211.399 232.641 211.769 C 233.856 212.14 234.806 213.091 235.176 214.304 C 235.548 213.091 236.498 212.14 237.711 211.769 C 236.496 211.399 235.548 210.449 235.176 209.234 Z M 232.436 204.427 C 232.137 205.4 231.377 206.162 230.402 206.459 C 231.377 206.758 232.137 207.52 232.436 208.492 C 232.733 207.518 233.495 206.756 234.467 206.459 C 233.495 206.162 232.734 205.4 232.436 204.427 Z M 240.516 204.427 C 240.042 205.979 238.826 207.196 237.272 207.671 C 238.826 208.145 240.042 209.36 240.516 210.916 C 240.99 209.362 242.207 208.147 243.759 207.671 C 242.207 207.196 240.992 205.979 240.516 204.427 Z M 257.159 224.887 C 256.685 226.441 255.468 227.656 253.914 228.131 C 255.468 228.605 256.685 229.874 257.159 231.427 C 257.633 229.873 258.849 228.605 260.402 228.131 C 258.849 227.656 257.633 226.441 257.159 224.887 Z" fill="#372865"/>
  <g transform="matrix(1, 0, 0, 1, -2.757352, 1.838235)">
    <text style="fill: rgb(101, 74, 129); font-family: Arial, sans-serif; font-size: 25.7px; font-weight: 700; white-space: pre;" x="269.302" y="227.43">bluspace</text>
  </g>
</svg>